<?xml version="1.0" encoding="utf-8"?>
<!-- Generator: Adobe Illustrator 25.3.0, SVG Export Plug-In . SVG Version: 6.00 Build 0)  -->
<svg version="1.1" id="Layer_1" xmlns="http://www.w3.org/2000/svg" xmlns:xlink="http://www.w3.org/1999/xlink" x="0px" y="0px"
	 viewBox="0 0 283.46 323.15" style="enable-background:new 0 0 283.46 323.15;" xml:space="preserve">
<style type="text/css">
	.st0{opacity:0.5;}
	.st1{fill:#40BAC2;}
	.st2{enable-background:new    ;}
	.st3{fill:#E6332A;}
	.st4{fill:#009640;}
</style>
<g>
	<g class="st0">
		<path class="st1" d="M145.06,163.83l137.95-79.65l0.45,158.52l-137.95,79.65L145.06,163.83z M255.78,226.93l-0.27-95.11
			l-82.77,47.79l0.27,95.11L255.78,226.93"/>
	</g>
	<g class="st0">
		<g class="st2">
			<g>
				<polygon class="st3" points="174.6,20.14 147.18,36.07 113.18,16.43 140.59,0.5 				"/>
			</g>
			<g>
				<polygon class="st4" points="131.87,58.98 125.99,69.48 125.19,70.89 122.4,71.42 104.36,74.85 58.36,48.29 85.77,32.36 				"/>
			</g>
			<g>
				<polygon class="st3" points="278.55,80.15 181.63,98.6 191.82,80.44 194.48,75.7 196.54,72.03 247.63,62.3 				"/>
			</g>
			<g>
				<polygon class="st3" points="64.95,83.86 37.54,99.79 3.53,80.15 30.94,64.22 				"/>
			</g>
			<g>
				<polygon class="st4" points="208.89,39.93 190.21,73.23 187.55,77.97 175.29,99.81 137.25,107.05 129.46,108.53 71.73,119.53 
					40.91,101.73 141.58,82.49 144.37,81.96 145.16,80.55 177.97,22.08 				"/>
			</g>
			<g>
				<polygon class="st3" points="173.23,103.48 141.69,159.68 141.49,159.8 110.67,142.01 127.4,112.21 133.74,111 141.53,109.52 
									"/>
			</g>
		</g>
	</g>
	<g>
		<polygon class="st1" points="138.4,164.13 138.31,195.83 27.95,132.11 27.86,163.81 138.22,227.53 137.95,322.65 0,243 
			0.09,211.29 110.45,275.01 110.54,243.31 0.18,179.59 0.45,84.48 		"/>
	</g>
</g>
</svg>
