<?xml version="1.0" encoding="utf-8"?>
<!-- Generator: Adobe Illustrator 25.3.0, SVG Export Plug-In . SVG Version: 6.00 Build 0)  -->
<svg version="1.1" id="Layer_1" xmlns="http://www.w3.org/2000/svg" xmlns:xlink="http://www.w3.org/1999/xlink" x="0px" y="0px"
	 viewBox="0 0 100 100" style="enable-background:new 0 0 100 100;" xml:space="preserve">
<style type="text/css">
	.st0{display:none;}
	.st1{display:inline;}
	.st2{fill:#F2F2F2;}
	.st3{fill:#1E2424;}
	.st4{fill:#F8F9FA;}
</style>
<g id="Unlock" class="st0">
	<g class="st1">
		<g>
			<path class="st2" d="M102.9,44.7H23.5V18c0-14.5,12-26.4,26.7-26.4C64.7-8.4,76.5,3.5,76.5,18v10.5c0,2.9,2.4,5.3,5.3,5.3h21.1
				c2.9,0,5.3-2.4,5.3-5.3V18c0-32-26-58-58-58C18-40-8.2-14-8.2,18v27.6c-6.1,2.2-10.5,8-10.5,14.9v63.6c0,8.7,7.1,15.8,15.8,15.8
				h105.8c8.7,0,15.8-7.1,15.8-15.8V60.5C118.7,51.8,111.6,44.7,102.9,44.7z M2.4,18c0-26.2,21.4-47.5,47.8-47.5
				c26.2,0,47.5,21.3,47.5,47.5v5.3H87.1V18c0-20.4-16.6-36.9-36.9-36.9C29.8-18.9,12.9-2.3,12.9,18v26.7H2.4V18z M108.2,124.2
				c0,2.9-2.4,5.3-5.3,5.3H-2.9c-2.9,0-5.3-2.4-5.3-5.3V60.5c0-2.9,2.4-5.3,5.3-5.3c4.9,0,101.6,0,105.8,0c2.9,0,5.3,2.4,5.3,5.3
				V124.2z"/>
		</g>
	</g>
	<g class="st1">
		<g>
			<path class="st2" d="M50.2,65.8c-8.7,0-15.8,7.1-15.8,15.8c0,6.9,4.4,12.7,10.5,14.9v17.1c0,2.9,2.4,5.3,5.3,5.3s5.3-2.4,5.3-5.3
				V96.6c6.1-2.2,10.5-8,10.5-14.9C66,72.9,58.9,65.8,50.2,65.8z M50.2,86.9c-2.9,0-5.3-2.4-5.3-5.3s2.4-5.3,5.3-5.3
				s5.3,2.4,5.3,5.3S53.1,86.9,50.2,86.9z"/>
		</g>
	</g>
</g>
<g>
	<path class="st3" d="M50,0c27.6,0,50,22.4,50,50s-22.4,50-50,50S0,77.6,0,50S22.4,0,50,0z"/>
	<g>
		<path class="st4" d="M79.4,37.8c-0.1-3.1-0.6-5.3-1.4-7.2c-0.8-2-1.9-3.8-3.4-5.2c-1.5-1.5-3.3-2.7-5.2-3.4
			c-1.9-0.7-4-1.2-7.2-1.4c-3.2-0.2-4.2-0.2-12.2-0.2s-9,0-12.2,0.2c-3.1,0.1-5.3,0.6-7.2,1.4c-2,0.8-3.8,1.9-5.2,3.4
			c-1.5,1.5-2.7,3.3-3.4,5.2c-0.7,1.9-1.2,4-1.4,7.2C20.5,41,20.4,42,20.4,50s0,9,0.2,12.2c0.1,3.1,0.6,5.3,1.4,7.2
			c0.8,2,1.9,3.8,3.4,5.2c1.5,1.5,3.3,2.7,5.2,3.4c1.9,0.7,4,1.2,7.2,1.4C41,79.6,42,79.6,50,79.6s9,0,12.2-0.2
			c3.1-0.1,5.3-0.6,7.2-1.4c4-1.5,7.1-4.7,8.7-8.7c0.7-1.9,1.2-4,1.4-7.2C79.5,59,79.6,58,79.6,50S79.6,41,79.4,37.8z M74.1,62
			c-0.1,2.9-0.6,4.5-1,5.5c-1,2.6-3,4.6-5.6,5.6c-1,0.4-2.6,0.9-5.5,1c-3.1,0.1-4.1,0.2-12,0.2s-8.8,0-12-0.2
			c-2.9-0.1-4.5-0.6-5.5-1c-1.3-0.5-2.5-1.2-3.4-2.2c-1-1-1.7-2.1-2.2-3.4c-0.4-1-0.9-2.6-1-5.5c-0.1-3.1-0.2-4.1-0.2-12
			s0-8.8,0.2-12c0.1-2.9,0.6-4.5,1-5.5c0.5-1.3,1.2-2.5,2.2-3.4c1-1,2.1-1.7,3.4-2.2c1-0.4,2.6-0.9,5.5-1c3.1-0.1,4.1-0.2,12-0.2
			c7.9,0,8.8,0,12,0.2c2.9,0.1,4.5,0.6,5.5,1c1.3,0.5,2.5,1.2,3.4,2.2c1,1,1.7,2.1,2.2,3.4c0.4,1,0.9,2.6,1,5.5
			c0.1,3.1,0.2,4.1,0.2,12S74.2,58.8,74.1,62z"/>
		<path class="st4" d="M50,34.8c-8.4,0-15.2,6.8-15.2,15.2S41.6,65.2,50,65.2c8.4,0,15.2-6.8,15.2-15.2S58.4,34.8,50,34.8z M50,59.9
			c-5.4,0-9.9-4.4-9.9-9.9s4.4-9.9,9.9-9.9c5.4,0,9.9,4.4,9.9,9.9S55.5,59.9,50,59.9z"/>
		<path class="st4" d="M69.4,34.2c0,2-1.6,3.5-3.5,3.5c-2,0-3.5-1.6-3.5-3.5c0-2,1.6-3.5,3.5-3.5C67.8,30.7,69.4,32.2,69.4,34.2z"/>
	</g>
</g>
</svg>
