<?xml version="1.0" encoding="utf-8"?>
<!-- Generator: Adobe Illustrator 25.3.0, SVG Export Plug-In . SVG Version: 6.00 Build 0)  -->
<svg version="1.1" id="Layer_1" xmlns="http://www.w3.org/2000/svg" xmlns:xlink="http://www.w3.org/1999/xlink" x="0px" y="0px"
	 viewBox="0 0 1080 1103" style="enable-background:new 0 0 1080 1103;" xml:space="preserve">
<style type="text/css">
	.st0{fill:#F8F9FA;}
</style>
<g>
	<g>
		<path class="st0" d="M1016.79,1038.38H742.57v64.66h337.5V758.19h-63.28V1038.38z"/>
		<path class="st0" d="M63.35,64.19h274.22V-0.47H0.07v344.85h63.28V64.19z"/>
		<path class="st0" d="M742.57-0.47v64.66h274.22v280.19h63.28V-0.47H742.57z"/>
		<path class="st0" d="M63.35,758.19H0.07v344.85h337.5v-64.66H63.35V758.19z"/>
		<path class="st0" d="M225.77,230.15v223.28H143.5v64.66h793.14v-64.66h-82.27V230.15L225.77,230.15z M289.06,294.8h502.03v158.62
			H289.06V294.8z"/>
		<path class="st0" d="M225.77,635.86v236.56h628.59V635.86h-63.28v171.9H289.06v-171.9H225.77z"/>
	</g>
</g>
</svg>
