<?xml version="1.0" encoding="utf-8"?>
<!-- Generator: Adobe Illustrator 25.3.0, SVG Export Plug-In . SVG Version: 6.00 Build 0)  -->
<svg version="1.1" id="Layer_1" xmlns="http://www.w3.org/2000/svg" xmlns:xlink="http://www.w3.org/1999/xlink" x="0px" y="0px"
	 viewBox="0 0 100 100" style="enable-background:new 0 0 100 100;" xml:space="preserve">
<style type="text/css">
	.st0{display:none;}
	.st1{display:inline;}
	.st2{fill:#F2F2F2;}
	.st3{fill:#1E2424;}
	.st4{fill:#FFFFFF;}
</style>
<g id="Unlock" class="st0">
	<g class="st1">
		<g>
			<path class="st2" d="M102.9,44.7H23.5V18c0-14.5,12-26.4,26.7-26.4C64.7-8.4,76.5,3.5,76.5,18v10.5c0,2.9,2.4,5.3,5.3,5.3h21.1
				c2.9,0,5.3-2.4,5.3-5.3V18c0-32-26-58-58-58C18-40-8.2-14-8.2,18v27.6c-6.1,2.2-10.5,8-10.5,14.9v63.6c0,8.7,7.1,15.8,15.8,15.8
				h105.8c8.7,0,15.8-7.1,15.8-15.8V60.5C118.7,51.8,111.6,44.7,102.9,44.7z M2.4,18c0-26.2,21.4-47.5,47.8-47.5
				c26.2,0,47.5,21.3,47.5,47.5v5.3H87.1V18c0-20.4-16.6-36.9-36.9-36.9C29.8-18.9,12.9-2.3,12.9,18v26.7H2.4V18z M108.2,124.2
				c0,2.9-2.4,5.3-5.3,5.3H-2.9c-2.9,0-5.3-2.4-5.3-5.3V60.5c0-2.9,2.4-5.3,5.3-5.3c4.9,0,101.6,0,105.8,0c2.9,0,5.3,2.4,5.3,5.3
				V124.2z"/>
		</g>
	</g>
	<g class="st1">
		<g>
			<path class="st2" d="M50.2,65.8c-8.7,0-15.8,7.1-15.8,15.8c0,6.9,4.4,12.7,10.5,14.9v17.1c0,2.9,2.4,5.3,5.3,5.3s5.3-2.4,5.3-5.3
				V96.6c6.1-2.2,10.5-8,10.5-14.9C66,72.9,58.9,65.8,50.2,65.8z M50.2,86.9c-2.9,0-5.3-2.4-5.3-5.3s2.4-5.3,5.3-5.3
				s5.3,2.4,5.3,5.3S53.1,86.9,50.2,86.9z"/>
		</g>
	</g>
</g>
<g>
	<path class="st3" d="M50,0c27.6,0,50,22.4,50,50c0,27.6-22.4,50-50,50S0,77.6,0,50C0,22.4,22.4,0,50,0z"/>
	<path class="st4" d="M81.3,33.7c-2.2,0.9-4.5,1.6-7,1.9c2.5-1.5,4.5-3.8,5.4-6.5c-2.4,1.4-5,2.3-7.7,2.9c-2.2-2.3-5.4-3.7-8.9-3.7
		c-6.7,0-12.2,5.3-12.2,11.8c0,0.9,0.1,1.8,0.3,2.7C41,42.2,32,37.5,26,30.3c-1.1,1.7-1.7,3.8-1.7,5.9c0,4.1,2.1,7.7,5.4,9.8
		c-2-0.1-3.9-0.6-5.5-1.5v0.2c0,5.7,4.2,10.5,9.8,11.6c-1,0.3-2.1,0.4-3.2,0.4c-0.8,0-1.5-0.1-2.3-0.2c1.5,4.7,6.1,8.1,11.4,8.2
		c-4.2,3.2-9.4,5.1-15.1,5.1c-1,0-2-0.1-2.9-0.2C27.3,73,33.7,75,40.6,75C63,75,75.2,57,75.2,41.3l0-1.5
		C77.6,38.1,79.6,36.1,81.3,33.7z"/>
</g>
</svg>
