<?xml version="1.0" encoding="utf-8"?>
<!-- Generator: Adobe Illustrator 25.3.0, SVG Export Plug-In . SVG Version: 6.00 Build 0)  -->
<svg version="1.1" id="Layer_1" xmlns="http://www.w3.org/2000/svg" xmlns:xlink="http://www.w3.org/1999/xlink" x="0px" y="0px"
	 viewBox="0 0 40 40" style="enable-background:new 0 0 40 40;" xml:space="preserve">
<style type="text/css">
	.st0{fill:#85888F;}
</style>
<g>
	<path class="st0" d="M28.23,21.8H14.62c-0.99,0-1.8-0.8-1.8-1.8s0.8-1.8,1.8-1.8h13.62l-2.32-2.32c-0.7-0.7-0.7-1.84,0.01-2.54
		c0.7-0.7,1.83-0.7,2.53,0l5.39,5.39c0.7,0.7,0.7,1.84,0,2.54c0,0,0,0,0,0l-5.39,5.39c-0.7,0.7-1.84,0.71-2.54,0.01
		c-0.7-0.7-0.71-1.84-0.01-2.54c0,0,0,0,0.01-0.01L28.23,21.8z"/>
	<path class="st0" d="M7.44,5.64H21.8c0.99,0,1.79,0.8,1.8,1.79c0,0,0,0,0,0v3.59c0,0.99-0.8,1.8-1.8,1.8s-1.8-0.8-1.8-1.8v-1.8
		H9.23v21.54H20v-1.8c0-0.99,0.8-1.8,1.8-1.8s1.8,0.8,1.8,1.8v3.59c0,0.99-0.8,1.79-1.79,1.79c0,0,0,0,0,0H7.44
		c-0.99,0-1.79-0.8-1.8-1.79c0,0,0,0,0,0V7.43C5.64,6.44,6.44,5.64,7.44,5.64C7.43,5.64,7.43,5.64,7.44,5.64z"/>
</g>
</svg>
