<?xml version="1.0" encoding="utf-8"?>
<!-- Generator: Adobe Illustrator 25.3.0, SVG Export Plug-In . SVG Version: 6.00 Build 0)  -->
<svg version="1.1" id="Layer_1" xmlns="http://www.w3.org/2000/svg" xmlns:xlink="http://www.w3.org/1999/xlink" x="0px" y="0px"
	 viewBox="0 0 60 60" style="enable-background:new 0 0 60 60;" xml:space="preserve">
<style type="text/css">
	.st0{fill:#43B17B;}
	.st1{fill:#40AF6D;}
	.st2{fill:#FFFFFF;}
</style>
<g>
	<circle class="st0" cx="30" cy="30" r="28.66"/>
	<path class="st1" d="M22.68,42.93l14.74,14.74C49.62,54.41,58.66,43.29,58.66,30c0-0.27,0-0.54,0-0.81L47.09,18.52L22.68,42.93z"/>
	<g>
		<path class="st2" d="M30.72,36.42c1.27,1.27,1.27,3.44,0,4.7l-2.62,2.62c-1.27,1.27-3.44,1.27-4.7,0L11.92,32.17
			c-1.27-1.27-1.27-3.44,0-4.7l2.62-2.62c1.27-1.27,3.44-1.27,4.7,0L30.72,36.42z"/>
		<path class="st2" d="M40.76,16.44c1.27-1.27,3.44-1.27,4.7,0l2.62,2.62c1.27,1.27,1.27,3.44,0,4.7l-19.89,19.8
			c-1.27,1.27-3.44,1.27-4.7,0l-2.62-2.62c-1.27-1.27-1.27-3.44,0-4.7L40.76,16.44z"/>
	</g>
</g>
</svg>
