<?xml version="1.0" encoding="utf-8"?>
<!-- Generator: Adobe Illustrator 25.3.0, SVG Export Plug-In . SVG Version: 6.00 Build 0)  -->
<svg version="1.1" id="Layer_1" xmlns="http://www.w3.org/2000/svg" xmlns:xlink="http://www.w3.org/1999/xlink" x="0px" y="0px"
	 viewBox="0 0 40 40" style="enable-background:new 0 0 40 40;" xml:space="preserve">
<style type="text/css">
	.st0{fill-rule:evenodd;clip-rule:evenodd;fill:#85888F;}
</style>
<path id="uncheck_1_" class="st0" d="M20,34.5c-8.01,0-14.5-6.49-14.5-14.5S11.99,5.5,20,5.5S34.5,11.99,34.5,20S28.01,34.5,20,34.5
	L20,34.5z M27.25,24.81c0.64,0.64,0.64,1.69,0,2.33l-0.11,0.11c-0.65,0.64-1.69,0.64-2.34,0l-4.24-4.23c-0.32-0.32-0.85-0.32-1.17,0
	l-4.22,4.23c-0.65,0.65-1.69,0.65-2.34,0c0,0,0,0,0,0l-0.09-0.09c-0.64-0.64-0.65-1.69,0-2.33c0,0,0.01-0.01,0.01-0.01l4.27-4.22
	c0.32-0.32,0.33-0.84,0.01-1.16c0,0-0.01-0.01-0.01-0.01l-4.27-4.22c-0.65-0.64-0.66-1.68-0.02-2.33c0,0,0.01-0.01,0.01-0.01
	l0.09-0.09c0.31-0.31,0.73-0.48,1.17-0.48c0.46,0,1.57,0.89,1.87,1.19l3.52,3.52c0.32,0.32,0.84,0.32,1.17,0c0,0,0,0,0,0l4.24-4.23
	c0.65-0.64,1.69-0.64,2.34,0l0.11,0.11c0.64,0.64,0.64,1.69,0,2.33l-4.22,4.22c-0.32,0.32-0.32,0.84,0,1.16c0,0,0,0,0,0L27.25,24.81
	z"/>
</svg>
